<svg width="150" height="150" viewBox="0 0 150 150" xmlns="http://www.w3.org/2000/svg" fill="none">
  <defs>
    <linearGradient id="pulseGradient" x1="0" y1="0" x2="1" y2="1">
      <stop offset="0%" stop-color="#7c3aed" />
      <stop offset="100%" stop-color="#6366f1" />
    </linearGradient>
  </defs>

  <!-- Chat bubble shape -->
  <path
    d="M25 30 H115 A10 10 0 0 1 125 40 V90 A10 10 0 0 1 115 100 H60 L40 120 V100 H25 A10 10 0 0 1 15 90 V40 A10 10 0 0 1 25 30 Z"
    fill="url(#pulseGradient)"
  />

  <!-- Pulse line -->
  <path
    d="M35 65 L45 65 L50 55 L55 75 L60 65 L70 65 L75 50 L80 70 L85 65 L110 65"
    stroke="#fff"
    stroke-width="4"
    stroke-linecap="round"
    fill="none"
  />

  <!-- Brand Text -->
  <text
    x="75"
    y="140"
    text-anchor="middle"
    font-family="Segoe UI, sans-serif"
    font-size="16"
    fill="#4f46e5"
    font-weight="600"
  >
    PingPulse
  </text>
</svg>
